<svg width="96" height="21" viewBox="0 0 96 21" fill="none" xmlns="http://www.w3.org/2000/svg">
<path d="M8.84291 19.9845C8.5394 19.4612 8.09494 19.0303 7.55844 18.7393C7.02195 18.4483 6.4142 18.3084 5.80207 18.3351C3.81129 18.3811 1.87838 19.0026 0.244666 20.122L0 19.8127C1.39809 18.1289 4.43893 16.1701 6.92054 16.2045C9.26234 16.2045 10.276 17.0636 10.8701 17.8196L11.4993 17.4072L11.8139 18.0258L8.84291 19.9845ZM4.40398 15.3797L4.33408 15.4485C4.37873 15.1411 4.40209 14.8311 4.40398 14.5206C4.50884 12.2526 3.42532 9.33162 3.49522 7.09794C3.53522 6.18595 3.83828 5.30397 4.36903 4.55499C4.09117 5.19732 3.9371 5.88481 3.91465 6.58248C3.92332 7.85325 4.06385 9.11983 4.33408 10.3625C4.57874 11.634 4.82341 12.9399 4.7535 14.0395C4.78372 14.5113 4.66138 14.9804 4.40398 15.3797ZM10.9051 5.7921V4.96736L11.6391 4.45189C11.7538 4.39932 11.8452 4.30775 11.8966 4.19406C11.948 4.08038 11.9559 3.95226 11.9187 3.83334C11.7789 3.21478 10.94 2.14949 9.85653 2.14949C8.28368 2.14949 7.58463 3.48969 7.58463 5.27664C7.58463 7.37286 8.42349 10.0533 8.45844 11.8402C8.50997 12.4004 8.40739 12.9639 8.16143 13.4717C7.91546 13.9796 7.53517 14.4131 7.06035 14.7268L5.17293 16.067L4.85836 15.689C5.21208 15.1716 5.39514 14.5597 5.38264 13.9364C5.4875 11.6684 4.40398 8.74743 4.47388 6.47938C4.57874 3.62715 7.27006 1.29038 10.3109 1.32475C12.8624 1.32475 14.1557 2.69932 14.61 3.42097L10.9051 5.7921ZM7.86425 20.5C7.51473 19.744 6.57102 19.1254 5.4875 18.9536C5.59356 18.9592 5.69984 18.9476 5.80207 18.9192C6.92054 18.9192 7.8992 19.4347 8.28368 20.2251L7.86425 20.5ZM11.3245 3.97079L10.94 4.24571C10.8164 3.92992 10.6287 3.64216 10.3883 3.39995C10.148 3.15773 9.86 2.96612 9.54196 2.83677C9.6648 2.79107 9.79509 2.76778 9.92643 2.76804C10.6255 2.76804 11.2896 3.62715 11.3245 3.97079ZM16.078 13.6615V16.0326C16.078 16.3763 16.113 16.5481 16.3576 16.6856L18.3499 18.0258L20.5519 16.8574L20.9014 17.579L16.7072 19.9845L13.7362 18.0945C13.5933 18.0025 13.4786 17.8739 13.4047 17.7224C13.3308 17.571 13.3004 17.4026 13.3168 17.2354V9.95018L12.1634 10.5687V9.84708L17.7557 6.65121L21.3558 10.5344L16.078 13.6615ZM15.7285 20.5L13.0372 18.7474C12.8279 18.588 12.6569 18.3853 12.5361 18.1538C12.4153 17.9222 12.3477 17.6673 12.3381 17.4072V11.1529L12.443 11.0842L12.7226 10.9124V17.201C12.7133 17.4645 12.7726 17.7259 12.895 17.9605C13.0173 18.195 13.1986 18.395 13.4217 18.5412L16.113 20.2938L15.7285 20.5ZM16.3227 8.5756L16.113 8.71306V12.5619L18.5247 11.0842L16.3227 8.5756ZM17.1965 11.1873L16.7072 10.6031L16.6722 9.91581L17.581 10.9467L17.1965 11.1873Z" fill="black"/>
<path d="M30.723 19.9502C30.5244 19.4778 30.1835 19.0764 29.7462 18.8C29.3088 18.5236 28.7959 18.3853 28.2763 18.4038C26.553 18.4383 24.8865 19.0166 23.5228 20.0533L23.2432 19.6753C24.3617 18.4725 26.9831 16.5137 29.7443 16.4794C30.3333 16.4528 30.9214 16.5493 31.4696 16.7625C32.0179 16.9758 32.5139 17.3009 32.925 17.7165L34.1134 17.0636L34.4629 17.7509L30.723 19.9502ZM25.0957 2.39003C24.9928 2.65523 24.9459 2.93826 24.9579 3.22185C24.9699 3.50545 25.0406 3.78366 25.1656 4.03952C25.2965 4.25247 25.4689 4.43795 25.6728 4.58537C25.8767 4.73278 26.1082 4.83923 26.354 4.89863C24.7811 5.03608 24.0821 3.79897 25.0957 2.39003ZM47.2554 3.83333C46.2068 4.45189 45.8573 5.24227 45.8573 6.51375V16.5825C45.8573 17.201 45.9272 17.5103 46.2768 17.6821L46.6263 17.854L47.6049 17.3041L47.9195 17.9227L44.5641 19.8814L43.4107 19.1254C42.8864 18.7818 42.6767 18.3694 42.6767 17.5447V8.54124C42.6767 6.85739 43.201 5.96392 43.9699 5.41409L44.3893 5.10481L41.2436 3.28351L39.8106 4.14261V17.2698C39.8106 18.3694 39.6358 18.5412 38.6572 19.0223C38.6572 19.0223 37.8882 19.4003 36.8047 19.9502H36.595V5.41409C36.595 4.69244 36.5251 4.55498 36.1057 4.2457L34.9872 3.35223L33.624 4.10825V11.634C33.624 12.9399 33.4143 13.9021 32.3308 14.555L29.6395 16.2045L29.3599 15.7577C30.1987 15.1392 30.3735 14.2457 30.3735 13.1804V5.51718C30.3735 4.38316 30.1987 3.93643 29.0103 4.14261C28.556 4.21134 27.8569 4.31443 27.4375 4.38316C25.6549 4.62371 24.9209 3.3866 26.1093 1.84021C26.1093 1.84021 26.3889 1.4622 27.1579 0.5L27.7521 0.878007L27.3326 1.49656C26.7734 2.28694 27.2278 2.69931 28.1365 2.39003C28.556 2.21821 29.3948 1.90893 29.989 1.66838C32.5405 0.706186 33.4842 2.28694 33.5891 3.24914L36.7348 1.39347L39.4611 3.45533L42.8514 1.39347L45.4379 2.83677C46.3117 3.35223 46.7661 3.11168 47.3603 2.80241L47.8846 2.52749L48.269 3.18041L47.2554 3.83333ZM29.7443 20.4656C29.5346 19.7784 28.8705 19.1942 27.7521 19.0567C27.9135 19.0282 28.0775 19.0167 28.2414 19.0223C29.6395 19.0567 30.024 19.8814 30.1288 20.1564L30.1638 20.2251L29.7443 20.4656ZM29.255 15.0704C29.3882 14.6128 29.4472 14.1373 29.4298 13.6615V5.99828C29.4298 5.07045 29.3599 4.96735 29.0453 4.69244H29.1152C29.5696 4.62371 29.8142 4.69244 29.8142 5.48282V13.1804C29.8492 14.0739 29.6744 14.6581 29.255 15.0704ZM36.0008 20.3969C35.9631 20.4342 35.914 20.4584 35.861 20.4656H35.6513V5.75773C35.6513 5.03608 35.5814 5.03608 35.1619 4.7268L34.5328 4.2457L34.9173 4.03952C35.2318 4.31443 35.7212 4.65808 35.7212 4.69244C35.8959 4.86426 35.9658 4.96735 35.9658 5.41409V20.3969H36.0008ZM43.0611 5.44845L40.9291 4.21134L41.2436 4.00515L43.3058 5.17354C43.2359 5.27663 43.1311 5.34536 43.0611 5.44845ZM43.5854 20.4656L42.6417 19.8471C42.3341 19.6287 42.0868 19.3384 41.922 19.0024C41.7572 18.6664 41.6802 18.2953 41.698 17.9227V9.12543C41.6473 8.19359 41.8915 7.26919 42.3971 6.47938C42.1453 7.14972 42.0266 7.86132 42.0475 8.5756L42.0825 17.579C42.0825 18.5412 42.3621 19.1942 43.0611 19.6753L43.935 20.2595L43.5854 20.4656Z" fill="black"/>
<path d="M54.2458 19.9845L50.8555 18.0258C50.6595 17.9203 50.5009 17.7584 50.401 17.5619C50.3011 17.3654 50.2645 17.1436 50.2962 16.9261V9.95018L49.1428 10.6031V9.84709L54.7352 6.65121L58.1954 8.67871C58.3581 8.75653 58.4943 8.87917 58.5874 9.03169C58.6805 9.18422 58.7264 9.36006 58.7197 9.53781V16.6856L59.6634 16.2045L59.9081 16.7887L54.2458 19.9845ZM53.3021 20.5L50.2263 18.7474C49.9499 18.5938 49.722 18.3682 49.5678 18.0953C49.4136 17.8224 49.3391 17.5129 49.3525 17.201V11.1529L49.4574 11.0842L49.737 10.9467V16.8918C49.7038 17.2158 49.7691 17.5422 49.9247 17.8297C50.0802 18.1172 50.319 18.3528 50.6108 18.5069L53.6866 20.3282L53.3021 20.5ZM55.8886 10.8437C55.9195 10.6581 55.8842 10.4678 55.7887 10.3049C55.6931 10.1421 55.5432 10.0167 55.3643 9.95018L53.2322 8.74743L53.0575 8.81616L53.0225 15.7577C53.0225 16.2388 53.0924 16.4794 53.4769 16.6856L55.6789 17.9571L55.8536 17.9227V10.8437H55.8886ZM54.9099 16.7543L54.9449 11.3591C54.9449 10.8093 54.9449 10.7406 54.4206 10.4656L53.6866 10.0876V9.70963L54.9449 10.4313C55.0569 10.4718 55.1521 10.5479 55.2153 10.6474C55.2786 10.7469 55.3064 10.8643 55.2944 10.9811V16.9949L54.9099 16.7543ZM70.5685 19.9502L69.4501 19.2973C68.9258 18.988 68.6811 18.5412 68.6811 17.7509L68.6462 10.6031C68.6691 10.4239 68.6459 10.2419 68.5788 10.0738C68.5116 9.90568 68.4026 9.75684 68.2617 9.64091L66.9685 8.64434L65.8849 9.2629V17.9914C65.8849 18.7131 65.7102 18.9536 65.0461 19.1942C65.0461 19.1942 64.6267 19.366 63.2635 19.9502H63.0538V9.46908L62.215 8.54125L61.0615 9.22853L60.6071 8.71307L63.9975 6.68558L65.6752 8.47252L68.8559 6.68558L70.9181 8.19761C71.3025 8.47252 71.4423 8.71307 71.4423 9.33163V16.8918C71.4423 17.5103 71.5122 17.7852 71.8967 17.9914L72.2462 18.1976L73.2249 17.6478L73.5045 18.2663L70.5685 19.9502ZM62.4247 20.3969L62.2849 20.4656H62.0751V9.98455L61.6907 9.53781L62.1101 9.29726L62.4596 9.67527V19.9502L62.4247 20.3969ZM69.5899 20.4656L68.6112 19.9502C68.052 19.6409 67.6325 18.988 67.6325 18.0258V11.0842C67.6325 10.4656 67.7024 10.4313 67.2481 10.122L66.4791 9.53781L66.8985 9.33163C67.283 9.60654 67.8423 10.0533 67.8423 10.0533C68.017 10.1907 68.017 10.1564 68.017 10.5687V17.7165C67.9886 18.1295 68.0743 18.5424 68.2651 18.9114C68.4558 19.2804 68.7445 19.5918 69.1005 19.8127L69.9044 20.2938L69.5899 20.4656Z" fill="black"/>
<path d="M79.3066 19.9845L76.091 18.0258C75.7065 17.7852 75.5667 17.5447 75.5667 16.9605V10.2594L74.4832 10.8436V10.122L80.9493 6.44501V6.03264C80.9435 5.54385 80.8083 5.06499 80.557 4.64319C80.3058 4.2214 79.9471 3.87122 79.5163 3.62714L78.7124 3.18041L77.4891 3.83333L76.7551 3.48969L80.5299 1.32474L81.7183 2.04639C82.3434 2.37936 82.8613 2.87767 83.2134 3.48496C83.5655 4.09226 83.7377 4.7843 83.7106 5.48281V16.6512L84.6892 16.1357L84.9339 16.7543L79.3066 19.9845ZM78.3629 20.5L75.357 18.6443C74.9026 18.3694 74.623 17.957 74.623 17.0636V11.4622L74.7978 11.3935L75.0075 11.2904V16.9605C75.0075 17.7165 75.1473 18.1289 75.8463 18.5412L78.7474 20.3282L78.3629 20.5ZM80.0056 6.34192C80.0056 5.31099 79.4814 4.69243 78.5726 4.17697L78.3978 4.07388L78.7124 3.86769C78.7124 3.86769 78.9571 4.00515 79.2367 4.14261C79.5772 4.33448 79.862 4.60896 80.0639 4.93983C80.2658 5.27071 80.3782 5.64695 80.3901 6.03264V6.10137L80.0056 6.34192ZM80.9493 7.75085L80.7746 7.64776L78.3978 9.0567V15.7577C78.3779 15.942 78.4179 16.1278 78.5121 16.2883C78.6063 16.4489 78.7499 16.5759 78.9221 16.6512L80.8095 17.8539L80.9843 17.8196V7.75085H80.9493ZM80.0056 16.6856V8.81615L80.3901 8.5756V16.9261L80.0056 16.6856ZM90.1418 13.6615V16.0326C90.1418 16.3763 90.1767 16.5137 90.4214 16.6856L92.4137 18.0258L94.6157 16.8574L94.9302 17.579L90.736 19.9845L87.765 18.0945C87.6221 18.0025 87.5074 17.8739 87.4335 17.7224C87.3596 17.571 87.3292 17.4026 87.3456 17.2354V9.95017L86.1922 10.5687V9.84707L91.7845 6.6512L95.3846 10.5344L90.1418 13.6615ZM89.7573 20.5L87.066 18.7474C86.8236 18.5933 86.6277 18.3781 86.4986 18.1243C86.3695 17.8704 86.312 17.5872 86.332 17.3041V11.1186L86.4368 11.0498L86.7165 10.878V17.1667C86.7071 17.4301 86.7665 17.6915 86.8888 17.9261C87.0112 18.1607 87.1925 18.3606 87.4155 18.5069L90.1068 20.2594L89.7573 20.5ZM90.3864 8.5756L90.1418 8.71305V12.5618L92.5535 11.0842L90.3864 8.5756ZM91.2253 11.1873L90.736 10.6031L90.701 9.9158L91.6098 10.9467L91.2253 11.1873Z" fill="black"/>
</svg>
